<?xml version="1.0" encoding="utf-8"?>
<!-- Generator: Adobe Illustrator 13.0.0, SVG Export Plug-In . SVG Version: 6.00 Build 14948)  -->
<!DOCTYPE svg PUBLIC "-//W3C//DTD SVG 1.1//EN" "http://www.w3.org/Graphics/SVG/1.1/DTD/svg11.dtd">
<svg version="1.1" id="Layer_1" xmlns="http://www.w3.org/2000/svg" xmlns:xlink="http://www.w3.org/1999/xlink" x="0px" y="0px"
	 width="50px" height="30px" viewBox="0 0 50 30" enable-background="new 0 0 50 30" xml:space="preserve">
<g>
	<g>
		<path fill="#10CAB7" d="M32.526,0.194c8.133,0.002,14.722,6.591,14.724,14.725l0,0c-0.002,8.133-6.591,14.721-14.724,14.723l0,0
			c-8.134-0.002-14.723-6.59-14.726-14.723l0,0C17.804,6.785,24.393,0.196,32.526,0.194L32.526,0.194z M32.526,5.102
			c-5.42,0.011-9.806,4.396-9.816,9.817l0,0c0.011,5.42,4.396,9.805,9.816,9.815l0,0c5.42-0.01,9.807-4.395,9.814-9.815l0,0
			C42.333,9.498,37.946,5.113,32.526,5.102L32.526,5.102z"/>
	</g>
	<g>
		<polygon fill="#2C4755" points="2.751,0.85 7.659,0.85 7.659,29.806 2.751,29.806 2.751,0.85 		"/>
	</g>
</g>
</svg>
